# xmcd
#
# Track frame offsets:
#        150
#        26062
#        45200
#        68230
#        92520
#
# Disc length: 1549 seconds
#
# Revision: 0
# Processed by: cddbd v1.5.1PL0 Copyright (c) Steve Scherf et al.
# Submitted via: ExactAudioCopy v0.95b2
#
DISCID=33060b05
DTITLE=Natural Calamity - Resonance
DYEAR=1999
DGENRE=
TTITLE0=Resonace
TTITLE1=Home
TTITLE2=Presence
TTITLE3=Home (Prince Paul Remix Featuring Paul Barman)
TTITLE4=Presence (Automator Remix)
EXTD=
EXTT0=
EXTT1=
EXTT2=
EXTT3=
EXTT4=
PLAYORDER=
